<svg version="1.1" id="Layer_1" xmlns="http://www.w3.org/2000/svg" xmlns:xlink="http://www.w3.org/1999/xlink" x="0px" y="0px"
	 width="100%" viewBox="0 0 2538 1422" enable-background="new 0 0 2538 1422" xml:space="preserve">
<path fill="#274B6C" opacity="1.000000" stroke="none" 
	d="
M2538.732422,756.732178 
	C2539.000000,766.020874 2539.000000,775.041809 2539.000000,784.531372 
	C2534.438477,792.778442 2527.951904,798.910889 2521.812500,805.374146 
	C2501.757324,826.487244 2481.894775,847.783264 2461.900635,868.953552 
	C2450.015625,881.537598 2438.222656,894.208984 2426.407227,906.855530 
	C2410.960205,923.389648 2395.234375,939.668213 2380.247314,956.634033 
	C2372.533447,965.366272 2363.918701,973.240356 2356.012939,981.822388 
	C2331.322021,1008.625305 2306.187012,1035.018799 2281.249756,1061.594482 
	C2263.029541,1081.011841 2244.885742,1100.505249 2226.586426,1119.851318 
	C2208.636719,1138.827759 2190.729736,1157.847778 2172.664062,1177.229004 
	C2168.567383,1177.636108 2164.806885,1177.313721 2160.673340,1177.564453 
	C2158.696533,1176.179321 2157.072754,1176.008057 2154.985107,1176.028687 
	C2147.872070,1176.099121 2140.666504,1176.104126 2133.649658,1175.287720 
	C2122.235107,1173.959473 2110.765869,1173.472412 2099.343506,1172.353882 
	C2085.785645,1171.026123 2072.136230,1170.498779 2058.528809,1169.571045 
	C2041.769409,1168.428345 2024.994263,1167.536255 2008.260498,1166.016479 
	C1998.985107,1165.173950 1989.663818,1164.659180 1980.386719,1164.128662 
	C1967.431396,1163.387939 1954.523071,1162.024414 1941.557861,1161.481079 
	C1925.436646,1160.805420 1909.364136,1159.373413 1893.272705,1158.226685 
	C1881.160156,1157.363403 1869.057739,1156.370728 1856.944458,1155.529785 
	C1841.679565,1154.469849 1826.365723,1153.911011 1811.166016,1152.192017 
	C1800.870728,1151.027588 1790.562378,1151.772217 1780.254395,1150.704834 
	C1755.272827,1148.117676 1730.135864,1147.270386 1705.115479,1145.230469 
	C1681.238647,1143.283936 1657.316406,1141.964600 1633.437744,1140.071533 
	C1619.211792,1138.943481 1604.890259,1138.098022 1590.617065,1137.239136 
	C1576.190918,1136.371094 1561.737061,1135.388550 1547.308838,1134.318970 
	C1534.211426,1133.348022 1521.133545,1132.064209 1508.003052,1131.385132 
	C1493.725830,1130.646851 1479.472290,1129.288574 1465.199951,1128.369751 
	C1450.265869,1127.408691 1435.305542,1126.711914 1420.404541,1125.395752 
	C1407.825073,1124.284668 1395.212646,1123.749756 1382.640747,1122.623291 
	C1379.890259,1122.376831 1377.585571,1121.162476 1375.462280,1119.422729 
	C1336.690063,1087.653809 1297.616211,1056.254517 1258.811401,1024.527832 
	C1221.429565,993.964539 1183.816406,963.685486 1146.534058,932.999451 
	C1136.508911,924.747986 1126.413574,916.565674 1116.240601,908.487793 
	C1114.960083,907.471069 1113.446411,906.650818 1112.598389,904.668579 
	C1112.091064,901.178223 1113.834106,899.177490 1115.941406,897.204468 
	C1127.729126,886.167175 1139.739868,875.370667 1151.609253,864.423523 
	C1169.352783,848.058716 1187.177368,831.775452 1205.011963,815.506470 
	C1217.435059,804.173950 1229.935181,792.926025 1242.354004,781.588562 
	C1260.303589,765.202209 1278.149414,748.698853 1296.055542,732.268860 
	C1307.082397,722.151001 1318.630249,712.569702 1329.089233,701.832703 
	C1331.773926,699.076721 1334.806519,696.730591 1337.680054,694.201416 
	C1359.040894,675.400452 1379.786133,655.919312 1400.783325,636.722473 
	C1415.645996,623.134094 1430.397217,609.392517 1445.321655,595.880249 
	C1458.649170,583.813843 1471.346558,571.070862 1485.040039,559.384277 
	C1494.396484,551.399231 1502.692017,542.197815 1512.325073,534.454346 
	C1514.719727,532.529480 1517.035278,531.042419 1519.724243,532.708862 
	C1522.444702,534.394775 1521.523193,537.341492 1520.910034,539.904480 
	C1513.432129,571.157043 1505.886841,602.394043 1498.421753,633.648804 
	C1487.974487,677.388489 1477.303955,721.078308 1467.192627,764.894104 
	C1459.066406,800.107422 1449.924683,835.079468 1442.282959,870.398682 
	C1438.794067,886.523987 1434.315552,902.395691 1430.787231,918.502441 
	C1425.728149,941.597595 1420.197266,964.588135 1414.461060,987.518005 
	C1405.243896,1024.362549 1397.762695,1061.617432 1388.025024,1098.335815 
	C1387.470459,1100.426758 1385.446045,1103.536987 1387.761108,1104.661987 
	C1389.906982,1105.704834 1391.302979,1102.301270 1392.707397,1100.584595 
	C1414.638306,1073.774170 1437.646118,1047.873657 1459.725586,1021.189880 
	C1472.467896,1005.790344 1485.356079,990.512390 1498.256104,975.245789 
	C1524.259399,944.471680 1550.078125,913.542480 1576.038696,882.732422 
	C1597.498657,857.263794 1618.945923,831.782776 1640.276855,806.204529 
	C1660.863770,781.518433 1681.917480,757.218262 1702.267456,732.341003 
	C1711.752808,720.745361 1721.584961,709.433777 1731.194946,697.960510 
	C1754.396606,670.260742 1777.632202,642.581909 1800.890015,614.925903 
	C1818.361572,594.150452 1835.661621,573.221008 1853.143188,552.459900 
	C1869.120361,533.485291 1884.724365,514.179138 1901.224365,495.646027 
	C1905.430420,490.921722 1908.395142,485.303772 1912.642944,480.647675 
	C1913.862061,479.311493 1912.592041,477.368011 1914.286133,475.956970 
	C1917.378296,475.247009 1920.044434,474.302155 1923.284180,474.718994 
	C1925.863159,477.945526 1929.645874,478.037537 1932.699829,479.544312 
	C1958.687134,492.366333 1985.387817,503.641235 2011.705566,515.740662 
	C2032.263184,525.191956 2052.672852,535.016418 2073.604980,543.680664 
	C2087.288330,549.344421 2100.454590,556.196533 2113.974854,562.267944 
	C2154.067627,580.271973 2193.961670,598.718445 2233.988525,616.867737 
	C2263.096680,630.066101 2292.150879,643.385925 2321.289795,656.509949 
	C2348.008057,668.543762 2374.605469,680.851440 2401.431152,692.655945 
	C2415.741455,698.953125 2429.817871,705.808350 2444.077881,712.247742 
	C2473.511230,725.539124 2502.967773,738.780396 2532.244385,752.417236 
	C2534.528564,753.481323 2536.770508,754.530396 2538.732422,756.732178 
z"/>
<path fill="#22425E" opacity="1.000000" stroke="none" 
	d="
M1915.090332,477.722595 
	C1913.405640,485.197388 1908.848999,490.569183 1904.367432,495.933716 
	C1890.916870,512.034119 1877.395874,528.075928 1863.872681,544.115601 
	C1835.858521,577.343018 1807.788086,610.522949 1779.818237,643.787537 
	C1768.780273,656.914978 1758.044189,670.296448 1747.004761,683.422546 
	C1718.288086,717.566467 1689.421509,751.584473 1660.728882,785.748474 
	C1643.167358,806.658875 1626.037720,827.934937 1608.319336,848.710083 
	C1581.085327,880.642700 1554.155640,912.827515 1527.259766,945.043457 
	C1504.962769,971.751099 1482.513306,998.332153 1460.029297,1024.882812 
	C1445.182129,1042.415527 1430.557495,1060.135132 1415.323242,1077.344604 
	C1407.052856,1086.687134 1399.479858,1096.644775 1391.486572,1106.236816 
	C1389.554321,1108.555664 1387.419800,1112.615723 1384.261841,1110.961914 
	C1381.497559,1109.514404 1383.442993,1105.423706 1384.161743,1102.629395 
	C1396.198120,1055.838379 1406.300537,1008.586365 1417.822144,961.672668 
	C1424.732910,933.534058 1431.434448,905.343201 1438.081787,877.140930 
	C1446.678101,840.669800 1455.067993,804.150024 1463.661377,767.678223 
	C1468.742676,746.112000 1474.088013,724.608154 1479.238525,703.058105 
	C1488.996338,662.231750 1498.402466,621.318054 1508.593628,580.600525 
	C1511.950684,567.187561 1513.737305,553.425049 1518.011108,540.238037 
	C1518.545654,538.588379 1519.551025,536.423096 1517.391724,535.313660 
	C1515.584595,534.385132 1514.414185,536.265076 1513.203003,537.316162 
	C1495.595947,552.595886 1478.705322,568.648560 1461.734497,584.625732 
	C1445.739868,599.683655 1429.148682,614.106262 1412.905273,628.901917 
	C1399.120361,641.458252 1385.582031,654.287476 1371.702881,666.737549 
	C1359.068237,678.071228 1346.810669,689.806519 1334.024780,700.989563 
	C1315.751953,716.971619 1298.221313,733.800293 1280.305420,750.192566 
	C1258.934937,769.745667 1237.472656,789.198303 1216.087769,808.735535 
	C1202.444458,821.199951 1188.867432,833.737061 1175.263794,846.244873 
	C1155.901245,864.047852 1136.538940,881.851135 1117.187378,899.665955 
	C1116.211060,900.564636 1115.335571,901.572632 1114.214844,902.801086 
	C1113.547607,903.732117 1113.325562,904.596985 1112.115112,905.100220 
	C1099.037354,898.291321 1086.284912,891.368591 1073.369385,884.753479 
	C1054.395508,875.035034 1035.610107,864.955566 1016.700500,855.113831 
	C991.585876,842.042603 966.375916,829.149902 941.363220,815.888123 
	C909.574158,799.033386 877.634644,782.468018 845.767883,765.763611 
	C821.874512,753.238770 797.930969,740.804504 774.053894,728.250305 
	C736.169067,708.330994 698.248962,688.476929 660.261841,668.757080 
	C639.570068,658.015686 618.778870,647.422241 598.188293,636.515198 
	C573.911865,623.655579 549.483765,611.075439 525.263000,598.105530 
	C493.105621,580.885742 460.413208,564.677612 428.418396,547.144897 
	C427.687775,546.744568 426.949341,546.357300 426.228088,545.941040 
	C416.084839,540.086609 416.065765,540.065369 407.625336,548.509644 
	C362.871246,593.284058 318.519287,638.472351 273.158752,682.624756 
	C238.053696,716.794922 203.708527,751.715454 168.865784,786.140564 
	C139.238983,815.412170 110.198387,845.289185 80.398766,874.385315 
	C63.950939,890.444946 47.688972,906.686218 31.016365,923.083862 
	C22.102541,922.969543 13.675851,921.348999 5.258139,919.698181 
	C3.871625,919.426331 2.577684,918.744019 1.307716,917.304199 
	C1.000000,785.312439 1.000000,653.624878 1.000000,521.468628 
	C2.492305,519.214050 4.355642,518.422607 6.724616,518.491272 
	C10.549375,518.602173 14.367091,518.480835 18.187263,519.023438 
	C27.439585,520.337769 36.775822,520.206055 46.090141,520.601868 
	C74.014404,521.788696 101.983704,521.955261 129.863525,524.193054 
	C138.008987,524.846924 146.220566,523.921326 154.333817,524.588623 
	C179.051910,526.621460 203.914429,525.425842 228.594131,528.150024 
	C235.061523,528.863892 241.603775,528.071350 248.066666,528.560486 
	C274.952026,530.595276 301.971100,529.498596 328.827972,532.163940 
	C336.626740,532.937927 344.478363,532.345459 352.303345,532.510437 
	C371.109070,532.907043 389.843628,534.932068 408.662689,534.953186 
	C409.264099,534.953857 410.275421,535.396240 411.208191,534.276367 
	C413.493408,533.220032 415.009003,534.603027 417.125854,534.941772 
	C421.133331,535.441345 424.086426,533.255920 427.424286,532.602295 
	C447.361267,528.698425 467.201508,524.313660 487.162018,520.520386 
	C522.826416,513.742676 558.314819,506.086273 593.932007,499.077087 
	C628.900757,492.195526 663.822449,485.080292 698.764465,478.068573 
	C716.725525,474.464355 734.637695,470.562744 752.614563,467.063599 
	C777.290588,462.260376 801.857300,456.909271 826.597351,452.423553 
	C839.870544,450.016907 853.042969,447.062714 866.265869,444.381226 
	C886.172180,440.344330 906.024780,436.021851 926.004211,432.370361 
	C950.244507,427.940186 974.335876,422.773865 998.491638,417.936920 
	C1015.469971,414.537170 1032.361450,410.655609 1049.373901,407.414276 
	C1089.947021,399.684021 1130.312256,390.929169 1170.837402,382.981567 
	C1185.872192,380.032990 1200.940796,377.281830 1215.849609,373.743988 
	C1218.296997,373.163239 1220.944092,373.925903 1223.557373,372.255524 
	C1224.378296,371.712280 1224.897217,371.630798 1225.831543,371.932037 
	C1238.605713,377.798309 1250.540771,384.403931 1262.559326,390.844208 
	C1302.057739,412.010132 1341.673950,432.956024 1381.249023,453.977112 
	C1410.528931,469.529694 1439.676147,485.332520 1469.057617,500.697815 
	C1483.521973,508.261993 1498.016846,515.799316 1512.207520,523.869812 
	C1517.723755,527.006897 1522.994873,527.687439 1529.341431,526.917419 
	C1546.031616,524.892517 1562.682129,522.564209 1579.349976,520.395386 
	C1607.577881,516.722412 1635.774414,512.791931 1663.989990,509.022400 
	C1692.866211,505.164581 1721.720215,501.137787 1750.614746,497.407837 
	C1778.680542,493.784821 1806.747192,490.130859 1834.760376,486.126221 
	C1857.331055,482.899597 1879.984619,480.296875 1902.522217,476.843445 
	C1905.814331,476.338959 1909.164673,476.502106 1912.451782,476.023590 
	C1913.768799,475.831879 1914.635010,476.042419 1915.090332,477.722595 
z"/>
<path fill="#1A3449" opacity="1.000000" stroke="none" 
	d="
M1915.472900,478.058411 
	C1886.848633,481.800568 1858.613159,485.415039 1830.398560,489.184265 
	C1804.811646,492.602478 1779.255737,496.253510 1753.670776,499.687439 
	C1709.924927,505.558960 1666.164062,511.318756 1622.415405,517.169312 
	C1596.338745,520.656433 1570.259277,524.129089 1544.212158,527.827087 
	C1537.456421,528.786133 1530.592163,528.865540 1523.919922,530.537231 
	C1520.653442,531.355591 1517.718872,529.878113 1514.888672,528.364380 
	C1464.053589,501.174316 1413.236572,473.950806 1362.372803,446.814514 
	C1317.098145,422.660034 1271.771362,398.603241 1226.185059,374.309570 
	C1225.240967,371.851349 1226.256592,369.897308 1227.002441,367.868958 
	C1234.130493,348.486206 1242.738647,329.702515 1250.345947,310.527496 
	C1263.665405,276.954987 1277.812988,243.727890 1291.310913,210.231934 
	C1308.663208,167.171219 1326.866943,124.454819 1343.981079,81.297722 
	C1353.981812,56.078697 1365.061646,31.312403 1374.998047,6.072453 
	C1375.752319,4.156408 1376.889893,2.707855 1378.740234,1.259129 
	C1432.354248,1.000000 1485.708496,1.000000 1539.531372,1.000000 
	C1542.346191,2.659842 1542.595947,5.100692 1542.497192,7.677582 
	C1541.987061,20.978609 1541.173218,34.269623 1540.324341,47.546036 
	C1539.155151,65.832397 1538.411987,84.105537 1538.462769,102.429230 
	C1538.530029,126.736107 1536.808960,151.000153 1536.140503,175.291794 
	C1535.555786,196.539963 1534.345825,217.846085 1532.376709,239.051193 
	C1531.815186,245.099350 1530.548584,251.233459 1525.963257,255.937943 
	C1524.647217,257.288330 1523.786743,258.974457 1523.723755,260.850494 
	C1523.507202,267.302551 1522.160278,273.724640 1523.947266,280.223480 
	C1524.951660,283.875641 1525.430664,287.728058 1525.012573,291.600922 
	C1524.791260,293.650482 1525.061768,295.789948 1526.535522,297.234833 
	C1529.491821,300.133301 1529.426025,303.681274 1529.539185,307.394257 
	C1530.149170,327.391541 1528.735474,347.353363 1528.259644,367.321198 
	C1527.780273,387.443146 1526.294189,407.547882 1526.484131,427.701263 
	C1526.517212,431.211609 1525.932617,434.693237 1525.441772,438.129761 
	C1523.477417,451.883301 1523.951538,465.623688 1524.237061,479.457672 
	C1524.452026,489.880157 1523.556152,500.399689 1523.316650,510.881989 
	C1523.280884,512.447815 1522.278320,514.611877 1524.389038,515.211914 
	C1526.062500,515.687622 1526.727051,513.653015 1527.397705,512.371826 
	C1540.219604,487.875946 1553.961914,463.879791 1567.190186,439.606354 
	C1578.581909,418.702637 1590.656006,398.144073 1601.953369,377.185181 
	C1614.598999,353.724762 1627.942261,330.658936 1640.635986,307.225250 
	C1658.323364,274.573273 1676.363037,242.105774 1694.478516,209.683319 
	C1708.695435,184.238022 1722.479370,158.546188 1736.645020,133.072006 
	C1758.093262,94.501373 1779.036377,55.650452 1800.857178,17.286970 
	C1803.890991,11.952949 1805.861572,5.969147 1810.715210,1.284791 
	C1943.354126,1.000000 2075.708252,1.000000 2208.531250,1.000000 
	C2214.877197,5.699150 2218.547119,12.220775 2222.842529,18.168306 
	C2238.929443,40.442909 2255.509277,62.352264 2271.710205,84.541603 
	C2284.668701,102.290321 2297.661621,120.016640 2310.767822,137.654495 
	C2332.017090,166.250534 2353.100830,194.969330 2374.179932,223.688156 
	C2394.870605,251.877747 2415.732666,279.941193 2436.391846,308.154144 
	C2450.063965,326.825409 2463.549316,345.643005 2477.760742,363.915527 
	C2482.264893,369.706818 2485.787598,376.190399 2490.528076,381.800140 
	C2492.018799,383.564178 2491.555664,385.495850 2491.119629,387.716614 
	C2486.216309,390.137024 2481.167725,390.530640 2476.268311,391.307281 
	C2444.197754,396.390930 2412.145752,401.585938 2380.103027,406.843658 
	C2345.926270,412.451569 2311.665527,417.532257 2277.470703,423.037628 
	C2252.320312,427.086853 2227.183350,431.237732 2201.999023,435.086761 
	C2151.635986,442.784058 2101.374756,451.126617 2051.065186,459.164429 
	C2025.911499,463.183167 2000.721680,466.961639 1975.585449,471.108643 
	C1961.466187,473.438019 1947.292358,475.510101 1933.197998,478.022797 
	C1930.241089,478.549927 1927.536255,477.743378 1924.338989,477.332581 
	C1921.263672,477.442780 1918.567261,477.720459 1915.472900,478.058411 
z"/>
<path fill="#193143" opacity="1.000000" stroke="none" 
	d="
M1378.531372,1.000000 
	C1377.473389,8.741866 1374.296997,15.913837 1371.150513,23.064842 
	C1354.658447,60.547108 1340.199585,98.861267 1324.542847,136.684769 
	C1302.712769,189.421921 1280.452271,241.987991 1259.317383,295.002533 
	C1250.137329,318.029663 1239.418457,340.432007 1231.385498,363.920502 
	C1230.210815,367.355591 1229.107544,370.920013 1226.153809,373.864075 
	C1225.479004,374.087860 1225.055298,374.059937 1224.313477,374.010132 
	C1218.919800,373.776581 1214.848877,371.021332 1210.720459,368.562897 
	C1189.119507,355.699463 1167.204956,343.378021 1145.489624,330.713654 
	C1108.951050,309.404510 1072.233643,288.404205 1035.589722,267.279175 
	C1001.689331,247.735825 967.738403,228.274689 933.860413,208.693283 
	C903.875061,191.361862 873.803650,174.179169 843.853577,156.785950 
	C816.351196,140.814209 788.734741,125.038498 761.222656,109.082611 
	C756.356873,106.260643 754.256836,106.730736 750.348938,111.999527 
	C737.747803,128.988785 724.428955,145.420563 711.414185,162.084778 
	C689.795410,189.765472 668.296570,217.541046 646.564331,245.135132 
	C629.882263,266.316864 613.469849,287.732605 596.934082,309.039490 
	C581.416931,329.033875 565.723450,348.898590 550.352722,369.001923 
	C540.145081,382.352539 529.805664,395.640228 519.442688,408.835754 
	C502.275574,430.695190 485.235535,452.675079 467.873627,474.392426 
	C453.845978,491.939026 440.182648,509.794037 426.696655,527.772766 
	C424.294342,530.975403 421.693634,533.997009 418.229065,536.663452 
	C416.271179,536.890869 414.564819,536.888794 412.432251,536.867432 
	C403.383209,532.324219 397.303864,524.739258 390.419403,518.254700 
	C375.632385,504.326508 359.929077,491.403290 345.424164,477.204651 
	C332.325775,464.382904 318.047821,452.899719 304.869843,440.166748 
	C292.910522,428.611359 280.283386,417.724670 268.009338,406.497192 
	C257.700439,397.067352 247.166870,387.866577 237.006943,378.257111 
	C222.742615,364.765656 208.127029,351.641754 193.588333,338.440002 
	C180.529404,326.581879 167.443176,314.747528 154.601685,302.654907 
	C140.180069,289.074249 124.894722,276.410919 110.847534,262.469421 
	C97.942604,249.661560 83.685356,238.418411 70.577316,225.858597 
	C57.967823,213.776505 44.720829,202.352386 31.812571,190.577637 
	C22.591942,182.166687 13.774759,173.310791 4.329227,165.136902 
	C2.865888,163.870575 2.737999,161.838196 1.238892,160.238220 
	C1.000000,108.514656 1.043660,57.029194 0.907760,5.544207 
	C0.898068,1.872782 1.598299,0.898782 5.453499,0.899678 
	C462.989899,1.005961 920.526306,1.000000 1378.531372,1.000000 
z"/>
<path fill="#315D88" opacity="1.000000" stroke="none" 
	d="
M2159.666260,1175.231934 
	C2164.026855,1175.017090 2168.046143,1174.995117 2172.527832,1174.972046 
	C2174.900391,1174.405762 2176.517822,1174.922119 2178.123779,1176.064453 
	C2202.148682,1193.154053 2226.496582,1209.782227 2250.724365,1226.579590 
	C2266.598877,1237.585205 2282.521729,1248.530273 2298.397705,1259.533081 
	C2324.541504,1277.651611 2350.856689,1295.526611 2376.852295,1313.852417 
	C2403.943604,1332.950684 2431.409912,1351.504028 2458.499512,1370.604736 
	C2472.104248,1380.197266 2485.723389,1389.804443 2499.666748,1398.922119 
	C2507.752686,1404.209473 2515.567871,1409.896484 2523.321777,1415.642456 
	C2525.209961,1417.041748 2529.261230,1418.486938 2526.253174,1422.745850 
	C1744.312500,1423.000000 962.624878,1423.000000 180.468658,1423.000000 
	C177.764832,1421.438599 178.345505,1419.829712 179.764481,1418.016846 
	C185.948212,1410.116943 193.357391,1403.425293 200.714203,1396.686035 
	C202.181854,1395.341553 203.842789,1394.192383 205.212662,1392.738647 
	C216.746124,1380.499268 229.171371,1369.154663 241.458420,1357.718994 
	C254.236694,1345.826050 266.307648,1333.213867 279.371307,1321.587402 
	C288.517090,1313.447632 297.078644,1304.523315 305.890228,1295.936523 
	C335.783051,1266.806519 366.124908,1238.142822 396.107056,1209.105225 
	C402.685242,1202.734375 408.700165,1195.862671 415.272217,1189.508423 
	C418.217804,1186.660400 422.777191,1185.693115 424.826599,1181.307373 
	C426.579651,1181.137939 427.967407,1181.188354 429.775543,1181.030029 
	C434.635101,1184.203003 439.907501,1185.083496 445.026215,1186.295044 
	C471.604675,1192.585938 498.057190,1199.403320 524.671692,1205.535767 
	C557.943848,1213.202515 590.954895,1221.946289 624.233459,1229.568359 
	C653.622375,1236.299438 682.743164,1244.135986 712.150513,1250.760254 
	C751.150696,1259.545410 789.826782,1269.663086 828.767944,1278.701294 
	C856.502747,1285.138550 884.143311,1292.052612 911.795776,1298.877686 
	C931.683716,1303.786499 951.630249,1308.457642 971.525940,1313.345093 
	C1005.163330,1321.608032 1038.897949,1329.477661 1072.578979,1337.566040 
	C1086.344116,1340.871582 1100.100586,1344.192383 1113.757690,1347.898438 
	C1122.554810,1350.285522 1131.294312,1349.455200 1140.039917,1348.149292 
	C1148.802612,1346.840576 1157.578857,1346.291382 1166.428955,1346.485596 
	C1186.586060,1346.927979 1206.723267,1345.701660 1226.858154,1345.208252 
	C1248.296753,1344.682861 1269.730225,1342.507446 1291.029785,1339.936646 
	C1303.481445,1338.433960 1315.738281,1336.701416 1328.264648,1338.440430 
	C1332.227905,1338.990479 1336.178345,1339.681396 1340.071533,1340.472900 
	C1351.975830,1342.892700 1363.348511,1339.761963 1374.620117,1337.145264 
	C1394.418091,1332.548828 1414.348389,1328.662598 1434.275513,1324.732300 
	C1448.819824,1321.863647 1463.321655,1318.796875 1477.832153,1315.764648 
	C1506.842407,1309.702637 1535.841919,1303.593872 1564.956299,1298.024414 
	C1586.382202,1293.925903 1607.582764,1288.674194 1628.977783,1284.411255 
	C1661.804565,1277.870361 1694.680054,1271.536987 1727.323975,1264.159180 
	C1761.617798,1256.408447 1796.329712,1250.761230 1830.592896,1242.896851 
	C1868.416504,1234.214966 1906.664551,1227.568848 1944.558105,1219.195068 
	C1981.638428,1211.001099 2018.968140,1203.976318 2056.136719,1196.187622 
	C2085.638672,1190.005371 2115.127197,1183.756348 2144.559326,1177.245850 
	C2149.423096,1176.170044 2154.430908,1176.257324 2159.666260,1175.231934 
z"/>
<path fill="#2E567E" opacity="1.000000" stroke="none" 
	d="
M425.234375,1183.800781 
	C423.039093,1188.019775 418.774231,1189.473389 415.931366,1192.504395 
	C409.222717,1199.656860 402.387787,1206.668091 395.273560,1213.453491 
	C379.858704,1228.155884 364.227936,1242.653442 349.122986,1257.658447 
	C329.996613,1276.658447 310.174194,1294.910645 290.813934,1313.653687 
	C262.248138,1341.308594 233.693359,1368.976685 204.893051,1396.386230 
	C198.746170,1402.236206 192.537949,1408.025269 186.515289,1414.006592 
	C184.025787,1416.479004 181.784546,1419.159546 180.132111,1422.683716 
	C122.037056,1423.000000 64.074020,1422.959473 6.111371,1423.089844 
	C2.185341,1423.098755 0.860396,1422.655640 0.864770,1418.117432 
	C1.025475,1251.390869 1.000000,1084.664062 1.000001,917.468628 
	C10.720220,918.318848 20.440437,919.637695 30.581133,920.984436 
	C33.506962,920.161438 35.532608,921.378052 37.553890,922.555847 
	C43.602127,926.079895 49.217972,930.256714 55.024899,934.145569 
	C84.053589,953.586182 113.254181,972.771545 142.281052,992.210205 
	C173.117035,1012.860474 203.963699,1033.500000 234.835709,1054.095093 
	C267.780884,1076.072876 300.699890,1098.092896 333.700378,1119.989258 
	C352.142639,1132.226074 370.445312,1144.681030 388.921112,1156.861572 
	C400.451569,1164.463257 411.652771,1172.557861 423.379425,1179.863525 
	C424.626465,1180.640381 426.844574,1181.120361 425.234375,1183.800781 
z"/>
<path fill="#2E567E" opacity="1.000000" stroke="none" 
	d="
M2526.476562,1423.000000 
	C2525.003662,1420.178833 2522.884521,1418.306763 2520.531738,1416.679932 
	C2501.216797,1403.325439 2481.872803,1390.013550 2462.568359,1376.644165 
	C2442.986328,1363.082397 2423.463379,1349.435059 2403.872070,1335.887085 
	C2370.995850,1313.152222 2338.044189,1290.526611 2305.201172,1267.744385 
	C2267.020508,1241.259277 2228.926514,1214.648682 2190.783936,1188.108765 
	C2184.909424,1184.021240 2178.694336,1180.405273 2173.215332,1175.219482 
	C2174.687988,1171.270874 2177.422119,1168.324463 2180.156982,1165.424316 
	C2198.092529,1146.406006 2216.218750,1127.565552 2234.016113,1108.419067 
	C2264.057373,1076.100098 2294.141357,1043.824097 2324.559326,1011.858093 
	C2344.643555,990.751831 2364.465332,969.395813 2384.397217,948.145020 
	C2414.805420,915.725037 2445.216064,883.307373 2475.609619,850.873352 
	C2494.507080,830.706970 2513.366455,810.505005 2532.266357,790.341003 
	C2534.081299,788.404541 2535.855957,786.373779 2538.689453,785.134888 
	C2539.000000,996.019470 2538.982422,1207.038940 2539.123291,1418.058350 
	C2539.126221,1422.434692 2538.051514,1423.653320 2533.939941,1423.059326 
	C2531.655762,1422.729370 2529.285156,1423.000000 2526.476562,1423.000000 
z"/>
<path fill="#22425E" opacity="1.000000" stroke="none" 
	d="
M1924.160034,477.424866 
	C1939.065063,473.673096 1954.430420,471.654053 1969.702637,469.112732 
	C1979.387695,467.501129 1989.106201,466.092499 1998.801147,464.538635 
	C2038.434570,458.186401 2078.060059,451.784058 2117.697266,445.455231 
	C2168.185547,437.393860 2218.667969,429.292542 2269.179932,421.381287 
	C2319.037109,413.572601 2368.947510,406.107086 2418.702148,397.646851 
	C2442.179932,393.654724 2465.714600,389.999756 2489.611816,386.096649 
	C2491.121094,383.602539 2493.101074,382.256195 2495.497070,381.306671 
	C2507.622559,376.501709 2519.677490,371.510406 2531.996338,367.213074 
	C2534.048340,366.497253 2536.366211,365.240021 2538.714600,367.716125 
	C2539.000000,497.354218 2539.000000,626.708435 2539.000000,756.531372 
	C2529.850830,755.767883 2522.263916,750.572876 2514.087158,746.961121 
	C2488.501709,735.659668 2463.063721,724.023621 2437.599121,712.450012 
	C2411.824951,700.735535 2386.094727,688.923645 2360.331055,677.185791 
	C2330.324951,663.515259 2300.296143,649.895630 2270.291504,636.222717 
	C2238.314941,621.651245 2206.402832,606.938293 2174.375244,592.480347 
	C2141.288330,577.544189 2108.254883,562.496094 2075.272461,547.329224 
	C2030.792480,526.875183 1986.004883,507.090881 1941.438965,486.822266 
	C1935.588989,484.161713 1929.423218,481.898590 1924.160034,477.424866 
z"/>
<path fill="#1A3449" opacity="1.000000" stroke="none" 
	d="
M1.000000,160.468658 
	C9.440804,164.655640 15.745972,171.890350 22.691402,178.291565 
	C46.928406,200.629532 71.053642,223.081284 95.869873,244.787704 
	C107.768120,255.194931 118.998070,266.363251 130.621887,277.088013 
	C143.468643,288.941162 156.441696,300.657318 169.319824,312.476593 
	C184.769485,326.656036 200.131531,340.931183 215.615677,355.072723 
	C230.734909,368.881012 246.195831,382.323730 261.078186,396.380676 
	C278.977020,413.286743 297.456543,429.554474 315.415588,446.398743 
	C330.091431,460.163605 345.156189,473.565002 360.102081,487.068115 
	C376.531433,501.911499 393.131042,516.572693 408.747314,532.288818 
	C409.903442,533.452332 410.744629,534.928833 411.869141,536.553955 
	C390.986847,538.165100 370.082764,535.604675 349.127838,534.866028 
	C319.196472,533.810974 289.227386,533.548035 259.350677,531.147400 
	C259.018524,531.120667 258.684265,531.063904 258.353851,531.079956 
	C235.842026,532.175537 213.451294,529.373535 191.000931,528.624939 
	C164.572815,527.743713 138.075272,527.709351 111.691513,525.258606 
	C104.417931,524.583008 97.014389,525.396240 89.716118,524.880493 
	C64.475815,523.096741 39.119129,523.831787 13.917653,521.240112 
	C9.955625,520.832642 5.929283,521.050476 1.466338,520.989624 
	C1.000000,400.979095 1.000000,280.958221 1.000000,160.468658 
z"/>
<path fill="#193143" opacity="1.000000" stroke="none" 
	d="
M1810.531372,1.000000 
	C1810.026855,7.809476 1805.989868,13.290683 1802.834961,19.078259 
	C1790.317383,42.041908 1777.518799,64.852448 1764.828979,87.722237 
	C1754.892456,105.629639 1744.934692,123.525238 1735.036377,141.453781 
	C1720.864502,167.122467 1706.767090,192.832321 1692.585327,218.495468 
	C1674.538330,251.153244 1656.410767,283.766449 1638.369141,316.427094 
	C1616.863892,355.357941 1595.388062,394.305054 1573.946533,433.271057 
	C1559.171387,460.121796 1544.485596,487.021576 1529.732178,513.884155 
	C1528.291626,516.506958 1526.852905,519.171875 1525.054321,521.545166 
	C1523.326538,523.824951 1521.609009,523.210327 1520.685181,520.639160 
	C1519.880249,518.399719 1520.055908,516.044800 1520.161865,513.707153 
	C1520.868530,498.095734 1522.427490,482.513702 1521.078369,466.845215 
	C1520.055786,454.968140 1522.651245,443.274231 1523.434814,431.485138 
	C1523.534180,429.990326 1523.890137,428.502960 1523.888062,427.012451 
	C1523.834351,388.032806 1527.089966,349.141357 1526.989746,310.161316 
	C1526.985474,308.495361 1527.062744,306.811066 1526.844482,305.169586 
	C1526.673584,303.885559 1526.496094,302.073242 1525.644287,301.497131 
	C1521.042725,298.385071 1521.395996,294.205353 1522.170410,289.534637 
	C1522.565796,287.149017 1522.301270,284.432831 1521.552368,282.119385 
	C1519.155640,274.714905 1520.961548,267.213135 1520.629272,259.773651 
	C1520.540039,257.772644 1521.029297,255.578430 1522.665894,254.294357 
	C1528.532715,249.691467 1529.535156,243.079483 1529.921753,236.435577 
	C1531.682129,206.188141 1533.582764,175.960876 1534.312622,145.643250 
	C1534.869507,122.511871 1535.651978,99.380463 1536.164795,76.238243 
	C1536.629272,55.282917 1538.488281,34.359158 1539.685669,13.418816 
	C1539.904419,9.595864 1539.899658,5.760127 1539.999023,1.465145 
	C1630.020874,1.000000 1720.041870,1.000000 1810.531372,1.000000 
z"/>
<path fill="#193143" opacity="1.000000" stroke="none" 
	d="
M2539.000000,367.531342 
	C2524.638184,371.969147 2511.170410,378.355225 2497.226562,383.453827 
	C2495.058594,384.246582 2492.888428,385.033661 2490.359619,385.912262 
	C2465.496582,352.545807 2441.016846,319.073090 2416.481934,285.640656 
	C2397.461914,259.723175 2378.395020,233.839737 2359.309814,207.970291 
	C2331.825195,170.716202 2304.252930,133.526886 2276.816406,96.237442 
	C2255.100586,66.723030 2233.534424,37.098232 2211.894043,7.528182 
	C2210.600342,5.760393 2209.499512,3.918646 2209.067627,1.358989 
	C2317.598389,1.000000 2426.196777,1.025090 2534.794922,0.893516 
	C2538.516846,0.889007 2539.091064,1.801643 2539.087891,5.290012 
	C2538.982422,125.880836 2539.000000,246.471771 2539.000000,367.531342 
z"/>
<path fill="#2E567E" opacity="1.000000" stroke="none" 
	d="
M2159.623535,1174.914795 
	C2157.975098,1177.656006 2154.914551,1178.018677 2151.996826,1178.645020 
	C2124.799072,1184.484253 2097.624756,1190.437134 2070.389893,1196.098267 
	C2038.585449,1202.709229 2006.658325,1208.741699 1974.909668,1215.604736 
	C1933.061035,1224.651001 1890.937378,1232.388916 1849.158203,1241.697876 
	C1806.711914,1251.155762 1763.886230,1258.695068 1721.452026,1268.204102 
	C1682.938721,1276.834473 1644.117188,1284.080200 1605.531372,1292.399170 
	C1566.942383,1300.718750 1528.092407,1307.727051 1489.530396,1316.196289 
	C1455.212036,1323.733765 1420.649902,1330.158081 1386.220581,1337.196533 
	C1379.210327,1338.629761 1372.182739,1340.131836 1365.269165,1341.886108 
	C1354.085449,1344.723633 1343.165161,1343.887573 1332.099854,1341.822998 
	C1319.009033,1339.380493 1306.060303,1339.864380 1292.941895,1342.579346 
	C1284.372192,1344.352905 1275.396484,1344.105225 1266.621338,1344.955688 
	C1230.105591,1348.494385 1193.472290,1348.735718 1156.837769,1349.073242 
	C1152.857666,1349.109863 1148.819702,1349.507690 1144.918701,1350.288574 
	C1129.483521,1353.378052 1114.692139,1351.097900 1099.582642,1347.122314 
	C1068.988159,1339.072388 1038.066040,1332.271362 1007.301331,1324.862915 
	C982.687683,1318.935547 958.115967,1312.834106 933.509338,1306.877441 
	C903.559021,1299.626953 873.582642,1292.484497 843.634155,1285.226807 
	C807.695801,1276.517700 771.799011,1267.636230 735.840210,1259.012939 
	C695.994507,1249.457520 656.076538,1240.203613 616.233093,1230.639038 
	C588.535645,1223.990234 560.930237,1216.958496 533.248291,1210.244019 
	C503.630005,1203.059814 473.968658,1196.053101 444.329742,1188.953613 
	C439.629089,1187.827759 434.925537,1186.688110 430.293579,1184.237549 
	C427.756378,1181.091797 430.586334,1180.197266 432.242554,1179.308716 
	C435.610199,1177.501953 439.277527,1176.300049 442.810333,1174.823364 
	C475.850525,1161.013672 509.133240,1147.789673 542.203918,1134.062622 
	C576.664917,1119.758667 611.278320,1105.827515 645.729797,1091.500000 
	C666.175964,1082.996948 686.725525,1074.711426 707.269226,1066.428833 
	C728.582947,1057.835815 749.737488,1048.825562 771.050171,1040.231445 
	C785.722961,1034.314697 800.250427,1028.052734 814.948486,1022.207336 
	C840.177429,1012.173523 865.173401,1001.572021 890.338196,991.382812 
	C936.959656,972.505798 983.430786,953.261047 1029.998169,934.252991 
	C1053.591797,924.622559 1077.171265,914.959106 1100.734985,905.256104 
	C1103.785034,904.000122 1106.780640,902.261902 1110.661743,902.900391 
	C1111.755615,902.995972 1112.509033,903.015442 1113.639404,903.053589 
	C1126.803467,913.481750 1139.621948,923.852844 1152.370239,934.309326 
	C1172.199707,950.574036 1191.929932,966.960327 1211.801636,983.173035 
	C1225.478027,994.331360 1239.356689,1005.241638 1253.085449,1016.336365 
	C1278.353882,1036.756592 1303.615356,1057.185791 1328.807861,1077.699463 
	C1344.819824,1090.737793 1360.729126,1103.902832 1376.622803,1117.085571 
	C1380.384155,1120.205322 1384.901489,1120.580566 1389.338135,1120.805298 
	C1418.745605,1122.293701 1448.064941,1125.127319 1477.453491,1126.743042 
	C1509.696533,1128.515625 1541.869385,1131.249146 1574.083740,1133.361084 
	C1598.481689,1134.960693 1622.918335,1136.348389 1647.291992,1138.614136 
	C1670.320190,1140.754883 1693.477783,1141.468018 1716.560303,1143.070679 
	C1739.308472,1144.650146 1762.031372,1146.591431 1784.770264,1148.309326 
	C1798.211426,1149.324829 1811.685181,1149.680054 1825.134888,1150.803955 
	C1842.044067,1152.217041 1858.995850,1153.202026 1875.922485,1154.531616 
	C1899.149048,1156.356201 1922.427490,1157.516113 1945.680420,1159.012085 
	C1958.465698,1159.834717 1971.244751,1160.754028 1984.025635,1161.644775 
	C1999.964722,1162.755859 2015.902466,1163.885620 2031.841309,1165.001343 
	C2044.626099,1165.896362 2057.414551,1166.739258 2070.195801,1167.683350 
	C2089.111572,1169.080688 2108.058105,1170.193848 2126.920898,1172.121216 
	C2137.686279,1173.221191 2148.628418,1172.046753 2159.623535,1174.914795 
z"/>
<path fill="#274B6C" opacity="1.000000" stroke="none" 
	d="
M1110.796875,902.717651 
	C1100.862915,909.241943 1089.462524,912.708374 1078.573730,917.236023 
	C1027.804932,938.346069 976.882996,959.088196 925.991394,979.902039 
	C885.901672,996.298157 845.755310,1012.556152 805.671875,1028.967529 
	C757.568359,1048.662476 709.517395,1068.485718 661.419922,1088.195557 
	C626.419312,1102.538452 591.364746,1116.749634 556.362183,1131.087891 
	C515.970154,1147.633545 475.605408,1164.245850 435.246765,1180.872803 
	C433.576233,1181.560913 432.088318,1182.692139 430.249451,1183.842041 
	C428.605225,1184.070557 427.226868,1184.073975 425.435608,1184.086304 
	C398.112854,1166.219604 371.159363,1148.409180 344.305206,1130.450195 
	C317.030029,1112.209717 289.902130,1093.749023 262.616486,1075.524414 
	C242.259033,1061.927246 221.714203,1048.610840 201.324799,1035.061035 
	C182.873993,1022.799500 164.549103,1010.348694 146.116318,998.059937 
	C128.521957,986.330017 110.821465,974.759216 93.237671,963.013611 
	C72.606995,949.232727 52.051933,935.338562 31.232838,921.252930 
	C31.974621,918.218201 34.140511,916.337158 36.153210,914.355835 
	C55.856064,894.960632 75.640587,875.647827 95.264404,856.173035 
	C116.656914,834.942810 137.901108,813.563110 159.214737,792.253418 
	C193.615234,757.859314 227.621613,723.059021 262.526642,689.184814 
	C302.941528,649.963501 342.311279,609.705505 382.367371,570.132080 
	C391.727386,560.884888 400.957031,551.505859 410.288696,542.229736 
	C415.087830,537.459106 416.696899,537.310913 422.519592,540.638611 
	C442.771240,552.212646 463.514130,562.865112 484.195740,573.638672 
	C513.892639,589.108582 543.475220,604.797852 573.135315,620.338562 
	C599.239441,634.015930 625.383362,647.617249 651.509277,661.253052 
	C683.409119,677.902527 715.331238,694.509399 747.201355,711.215515 
	C776.999268,726.835327 806.617554,742.802612 836.541016,758.176758 
	C871.360535,776.066223 905.983582,794.324768 940.647949,812.508484 
	C978.260315,832.238586 1016.013489,851.699951 1053.662354,871.360779 
	C1070.935547,880.381104 1088.109375,889.591797 1105.318237,898.735168 
	C1107.225830,899.748840 1109.167236,900.746094 1110.796875,902.717651 
z"/>
<path fill="#1A3449" opacity="1.000000" stroke="none" 
	d="
M418.395569,536.889709 
	C418.450226,532.370728 421.942657,529.688049 424.436890,526.427734 
	C438.501129,508.043579 452.543762,489.641907 466.746857,471.365204 
	C481.261108,452.688110 496.006073,434.190460 510.553619,415.539062 
	C536.359253,382.453766 561.916687,349.173370 587.899414,316.228119 
	C620.697449,274.641266 653.159729,232.788940 685.762390,191.053009 
	C706.874634,164.026382 728.320984,137.230316 748.759766,109.669838 
	C754.242737,102.276321 755.216309,102.391464 762.967529,106.910187 
	C792.899414,124.359558 822.929443,141.640625 852.938232,158.957825 
	C888.573425,179.521835 924.224182,200.058777 959.868530,220.606796 
	C1009.227417,249.060898 1058.595703,277.498810 1107.942383,305.973938 
	C1137.228882,322.873474 1166.434570,339.913696 1195.777344,356.714539 
	C1205.169800,362.092407 1214.674438,367.255829 1223.761719,373.749756 
	C1209.263184,378.993866 1193.948853,381.573669 1178.730103,384.370789 
	C1161.029297,387.624023 1143.449097,391.432922 1125.801392,394.923889 
	C1099.166870,400.192566 1072.528198,405.443024 1045.918091,410.833588 
	C1012.284424,417.646942 978.702026,424.714661 945.053223,431.451691 
	C901.450012,440.181702 857.793518,448.645172 814.179932,457.324005 
	C797.189453,460.704987 780.273010,464.457031 763.288940,467.871490 
	C714.617371,477.656281 665.919067,487.308411 617.249512,497.103241 
	C583.440979,503.907257 549.703369,511.069672 515.858704,517.686218 
	C484.632782,523.790894 453.417358,529.934204 422.288422,536.515259 
	C421.154663,536.755005 419.972961,536.767883 418.395569,536.889709 
z"/>
</svg>