<svg version="1.2" xmlns="http://www.w3.org/2000/svg" viewBox="0 0 900 324" width="900" height="324">
	<title>mainlogo-svg</title>
	<style>
		.s0 { fill: #000000 } 
	</style>
	<g id="Layer">
		<path id="Layer" fill-rule="evenodd" class="s0" d="m64.4 73h89.8c70 0 90.3 0.3 92.1 1.2 4 2.3 6.9 5.2 8.8 9 1.8 3.6 1.9 7 1.9 82.3 0 76.6 0 78.7-2 82.5-1.1 2.2-3.7 5.1-5.7 6.5l-3.8 2.5h-90.9c-90.2 0-90.9 0-94.2-2.1-1.9-1.1-4.4-3.5-5.6-5.2l-2.3-3.2v-80.6c0-77.5 0.1-80.7 1.9-84.1 1.1-2 3.7-4.7 6-6.2zm74.2 39c-2.5 0.5-4.9 1.8-6.4 3.6-2.3 2.6-2.4 3.3-1.8 10.1 0.6 6.6 0.5 7.3-1.1 7.3-3.8 0-12.4 10.7-12.2 15.2 0 2.3 0.1 2.3 1.2-0.2 0.6-1.4 1.5-3 2-3.5 4.3-5.6 8.1-8.5 11-8.5 4 0 11.6 12.4 11.7 19.1 0 1.5-8.4 5.9-11.3 5.9-0.7 0-1.9 0.6-2.6 1.2-0.8 0.9-4.3 1.3-10.7 1.2-8.4-0.1-9.7-0.4-11.9-2.4-4-3.8-2.9-8.8 3.8-17.3 4.1-5.3 2.7-5.7-2.2-0.6-7.2 7.5-8.8 13.5-5.1 19.3 1.9 3.2 4 4.6 9.4 6.2 2.7 0.8 2.9 1.3 3.1 6.6 0.3 5.7 2.4 10.6 6.7 15.2 2.4 2.6 2.3 2-0.7-4.2-5.8-12-4-17.3 6.1-17.9 4.7-0.4 6.8 0 10.4 1.9 3.9 2 4.5 2.7 4.4 5.3-0.4 9.4-4.2 20-9 25.3-1 1.1-2.5 2.8-3.2 3.6-0.7 0.9-2.6 1.6-4.2 1.6-3.4 0-9.4-6.4-10.4-11-0.3-1.7-1.1-3-1.7-3-1.8 0-0.3 5.3 3 10.8 5.3 8.5 12.2 9 20.3 1.5 2.8-2.6 3.2-2.6 8.3 0.6 2.3 1.5 4.9 2 11 2 5.5 0.1 7.5-0.2 6.5-0.9-0.8-0.5-3.7-1-6.3-1-7.1 0-13.6-3.9-13.7-8.1 0-2.5 3-8.1 6.4-11.7 4.8-5.2 6.1-5.6 9.8-3 8.1 5.6 16.8 15.8 16.8 19.6 0 1.2 0.5 2.4 1 2.7 1.6 1 1.1 5.1-0.9 7.6-1.7 2.1-2.8 2.4-9.4 2.4-4.2 0-7.9 0.3-8.2 0.7-1.2 1.1 6.2 2.1 12.6 1.6 8.9-0.6 10.4-2.6 10.2-12.8-0.1-7.8-0.1-7.8 2.8-9.1 3.7-1.5 8.9-7.6 8.9-10.4-0.1-1.9-0.1-1.9-1.1-0.1-2.2 3.7-8.5 8.6-11.2 8.6-3.5 0-9.7-9.2-11.2-16.6-0.5-2.7-0.2-3.5 2.3-5.2 1.5-1.1 4.1-2.4 5.8-2.8 1.6-0.4 3.5-1.2 4.3-1.8 0.8-0.6 5.5-1.1 10.9-1.2 8.4 0 9.8 0.2 12.1 2.2 3.9 3.3 3.3 8.3-1.8 15.5-4.4 6.2-4.3 7.8 0.1 3.1 8.8-9.3 10.1-15.9 4.1-21.7-2-1.9-4.6-3.5-5.7-3.5-3.9 0-5-1.6-4.7-6.4 0.2-3.4-0.4-5.6-2.4-9-2.3-3.9-5.5-7.6-5.5-6.4 0 0.2 1.1 2.8 2.5 5.6 4.6 9.6 2.4 14.5-7.1 15.7-4 0.6-6 0.3-9.8-1.4-2.6-1.2-4.9-2.8-5.2-3.5-0.9-2.3 2.5-17.1 5.2-22.4 2.5-5.1 8.1-10.2 11-10.2 2.9 0 9.4 5.8 9.4 8.4 0 0.9 0.4 1.6 0.9 1.6 0.6 0 1.4 1.9 1.9 4.2l1 4.3 0.1-3.7c0.2-7.1-6-17-11.6-18.4-3.1-0.8-8 1.2-12 4.9-3 2.8-6.3 3.2-6.3 0.7 0-0.5-0.8-1-1.8-1-1 0-2.2-0.4-2.7-0.9-1.1-1-6.4-1.5-13-1.2-5.8 0.2-2.4 2.1 3.8 2.1 2.8 0 6.4 0.8 8.7 2 3.7 1.9 4 2.3 4 6.3 0 2.4-0.8 5.4-1.8 7-1.9 2.8-9.2 9.7-10.3 9.7-2.6 0-19.9-17.4-19.9-20 0-1-0.6-3-1.4-4.4-1.6-3.2-1.1-5.8 1.6-8.3 1.6-1.4 3.7-1.8 9.8-1.8 8.7 0 11.4-1 5.4-2-7.4-1.1-8.9-1.2-12.8-0.5z"/>
		<path id="Layer" class="s0" d="m152.2 159.2c-3 1.5-3.8 5.2-1.9 8.2 3.7 5.5 11.7 3.6 11.7-2.9 0-5.3-4.5-7.8-9.8-5.3z"/>
		<path id="Layer" class="s0" d="m295.5 105.2c-0.8 3.7-1.1 64.1-0.2 67 0.7 2.6 1.1 2.8 6.2 2.8 3.2 0 5.7-0.5 6.2-1.3 0.4-0.6 0.8-7.1 0.8-14.2 0-7.2 0.4-13 0.8-13 0.4 0 1.3 1.1 2 2.5 4.8 9.1 9.3 17.1 12 21.2l3.2 4.8h6.3c9.4 0 9.6 1-4.4-24.5-8.4-15.3-8-14-5.8-18.2 1-2 4.7-8.5 8.1-14.3 3.5-5.8 6.3-11.5 6.3-12.8 0-2.1-0.4-2.2-6.4-2.2-5.9 0-6.6 0.2-8.4 2.7-1.9 2.7-7.9 13.5-11.2 20.2-2.4 4.7-3.2 2-2.4-7.9 0.4-4.3 0.4-9.4 0-11.4l-0.7-3.6h-5.9c-5.4 0-6 0.2-6.5 2.2z"/>
		<path id="Layer" class="s0" d="m349.2 105.1c-0.8 2-0.2 5.6 3.3 19.9 0.9 3.6 2.3 9.2 3 12.5 0.8 3.3 2.2 8.9 3.1 12.5 0.9 3.6 2.2 9 2.9 12 0.7 3 1.9 7.2 2.8 9.2 1.5 3.6 1.9 3.8 6 3.8 2.5 0 4.9-0.6 5.5-1.3 1.1-1.3 3.5-10.5 4.7-17.6 0.4-2.4 1.4-6 2.3-8l1.6-3.6 1.3 6.5c0.8 3.6 2 9.4 2.7 13 1.9 9.7 2.8 11 8 11 5.3 0 7.1-1.8 8.5-8.5 0.9-4.6 1.6-7.6 5.6-23.5 0.8-3.3 2.1-8.6 2.9-11.8 0.8-3.1 2-7.7 2.6-10.2 0.5-2.5 1.4-5.4 1.9-6.5 1.6-3.6 2-6.7 1.1-9.1-0.8-2.1-1.6-2.4-6-2.4-4.6 0-5.2 0.3-7 3.2-1.1 1.8-2 4.5-2 5.9 0 1.5-0.7 4.9-1.4 7.5-0.8 2.7-2.3 7.6-3.2 10.9-2.3 8-3.1 8.7-3.8 2.9-0.4-2.7-1.1-6.9-1.6-9.4-0.5-2.5-1.2-7.2-1.6-10.5-0.9-8.9-2.3-10.5-8.9-10.5-2.9 0-5.7 0.5-6 1-0.6 1-1 3-3.8 19.1-0.8 4.8-2.1 9.7-2.8 11-1.3 2.3-1.3 2.3-2.2-2.1-0.4-2.5-1.5-6.7-2.3-9.4-0.8-2.6-1.4-5.6-1.4-6.5 0-0.9-0.9-4.1-1.9-7.1l-1.8-5.5-5.7-0.3c-5-0.3-5.7-0.1-6.4 1.9z"/>
		<path id="Layer" class="s0" d="m428.5 104.3c-0.3 0.6-0.4 16.7-0.3 35.7l0.3 34.5 5.4 0.3c4 0.2 5.8-0.1 7.3-1.5 1.9-1.7 2-2.8 1.4-34-0.3-19.9-0.9-33.1-1.6-34.3-0.9-1.6-2.1-2-6.6-2-3.5 0-5.6 0.5-5.9 1.3z"/>
		<path id="Layer" class="s0" d="m451.7 104.4c-0.3 0.8-0.9 15.1-1.3 31.8-0.5 21.9-0.3 31.5 0.5 34.5l1.2 4.3h5.4c3 0 5.7-0.5 6.1-1.2 0.4-0.6 0.8-6.9 0.9-13.9 0-7.1 0.3-13 0.6-13.3 0.3-0.3 2.9 3.8 5.8 9.1 2.9 5.4 6.7 11.9 8.4 14.5l3.2 4.9 6-0.3c5.4-0.3 6-0.5 6.3-2.6 0.2-1.2-1.3-4.9-3.3-8.5-3.9-6.6-3.8-6.4-9.2-16.5-1.9-3.7-3.9-7.1-4.4-7.7-2.1-2.2-0.4-6.4 8.8-21.5 4.8-7.9 6.7-12.5 5.8-13.9-0.3-0.6-3.3-1.1-6.5-1.1-5.3 0-6.1 0.3-7.8 2.7-1.7 2.5-7.2 12.2-10.9 19.6-2.4 4.6-3.4 2.1-2.7-6.8 0.4-4.6 0.4-9.9 0-11.9l-0.7-3.6h-5.8c-4.2 0-6 0.4-6.4 1.4z"/>
		<path id="Layer" class="s0" d="m505 104.9c-1.2 2.4-1.3 7.1-0.1 9 0.5 0.8 3.1 1.7 5.8 2l4.8 0.6v27c0.1 31.2 0.2 31.5 7 31.5 3.4 0 4.7-0.5 5.5-1.9 0.6-1.2 1-11.5 1-26.4 0-13.5 0.3-25.9 0.6-27.6 0.6-2.9 0.9-3.1 5-3.1 6.6 0 9-3.8 6.4-10.4l-1-2.6h-16.9c-15.8 0-17.1 0.1-18.1 1.9z"/>
		<path id="Layer" class="s0" d="m550.3 104.6c-0.7 1.8 0.7 10.5 3.2 20.4 0.9 3.6 2.3 9.2 3 12.5 0.8 3.3 2.1 8.7 2.9 12 0.8 3.3 2.2 9.1 3.1 12.9 2.4 10.9 3.2 12 8.6 12.4 2.9 0.2 5-0.2 5.6-1 1.1-1.3 2.2-5.6 4.8-18 1.4-6.7 3.2-11.4 4.2-10.5 0.2 0.3 0.9 2.9 1.3 5.9 3.7 21.8 4.6 23.8 10.6 23.8 4.5 0 7.4-2.2 7.4-5.7 0-1.1 0.7-4.3 1.5-6.9 1.3-4.7 5.6-21.3 7.6-29.9 1.1-4.8 2.1-8.5 4.9-18.2 2.9-9.7 2-11.5-5.3-11.1-6.7 0.4-7 0.9-11.7 22.8-0.6 2.5-1.4 5.6-1.9 7-0.5 1.4-1.2 3.4-1.5 4.4-1 3.1-2.1 0.8-2.8-6.2-1.2-12.3-3-22.7-4.3-25.2-1.2-2.2-2-2.5-7.2-2.5h-5.8l-1.3 6c-0.6 3.3-1.9 9.7-2.7 14.2-0.8 4.4-2 9.4-2.6 11l-1.2 2.8-0.9-4c-0.5-2.2-1.6-7.4-2.5-11.5-0.9-4.1-2.4-10-3.3-13l-1.7-5.5-5.7-0.3c-4.5-0.2-5.8 0-6.3 1.4z"/>
		<path id="Layer" class="s0" d="m630.2 104.2c-0.9 0.9-1.2 9.5-1.2 34.4v33.2l3.1 1.1c4 1.4 23.4 1.4 26 0.1 1.5-0.8 1.9-2.1 1.9-5.8 0-2.6-0.4-5.3-0.9-6-0.5-0.8-3.8-1.6-8.5-1.9l-7.7-0.6 0.3-7.6 0.3-7.6 4.5-0.3c9.8-0.5 10.8-0.9 11.5-5 0.3-2.1 0.1-5-0.4-6.5-1-2.6-1.3-2.7-8.6-2.7h-7.5v-4.9c0-7.8 0.3-8.1 7.9-8.1 3.6 0 7.2-0.4 7.9-0.9 0.9-0.5 1.2-2.5 1-6.2l-0.3-5.4-14-0.3c-10.1-0.2-14.4 0.1-15.3 1z"/>
		<path id="Layer" class="s0" d="m750.7 104.8c-1.5 1.7-1.7 5.5-1.7 34.5 0 32.5 0 32.6 2.2 34.1 3.2 2.2 8.1 2 10.3-0.4 1.6-1.7 1.9-3.9 1.9-13.5 0.1-6.3 0.5-11.6 1-11.8 0.5-0.1 1.8 1.4 2.9 3.3 1.1 1.9 3.3 5.7 4.8 8.5 1.6 2.7 3.3 5.9 3.8 7 0.5 1.1 2.3 3.5 3.9 5.3 2.9 3 3.5 3.3 8.4 3 4.6-0.3 5.3-0.6 5.6-2.5 0.2-1.2-0.9-4-2.3-6.3-1.4-2.2-3-5.1-3.6-6.3-0.5-1.2-1.9-3.8-3-5.7-5.1-8.3-8.9-16.1-8.9-18 0-2.2 4.1-10.2 10.9-21.3 2.2-3.7 4.1-7.9 4.1-9.3 0-2.4-0.2-2.5-6.2-2.2-6 0.3-6.3 0.4-8.9 4.3-1.4 2.2-4.4 7.4-6.6 11.5-5.8 10.7-6.7 10.4-5.8-2.2 0.6-9.1 0.5-10.7-1-12.1-2.3-2.4-9.7-2.3-11.8 0.1z"/>
		<path id="Layer" class="s0" d="m814.5 104.7c-4.7 2.5-8.4 7.2-10.2 13-2.6 8.3-1 11.8 10.4 23.1 8.3 8.2 9.4 9.8 9.9 13.6 0.5 3.6 0.3 4.7-1.5 6.5-2.7 2.7-7.9 2.7-12.4 0.1-3.2-1.9-3.6-1.9-5.1-0.5-1.9 1.9-2.9 5.4-2.4 8.6 0.7 5 14.6 7.5 23 4.2 5.1-2 8.4-5.2 10.9-10.8 2.3-5 2.3-7.4 0.2-13.8-1.7-4.9-2.9-6.2-16.9-19.3-4.1-3.9-5.2-7.8-3.3-11.3 1.7-2.9 6.5-3.9 9.9-2.1 1.6 0.9 2.5 0.8 3.5 0 1.7-1.4 3.6-7.6 2.9-9.4-1.4-3.6-13.4-4.8-18.9-1.9z"/>
		<path id="Layer" fill-rule="evenodd" class="s0" d="m705.7 104.3c0.1 0.2 7.5 14.7 16.4 32.3 8.9 17.5 16.5 32.3 17 32.8 0.5 0.6 0.9 2 0.9 3.3v2.3l-35.2-0.2c-34.7-0.3-35.3-0.3-35-2.3 0.2-1.1 5.9-13 12.7-26.5 17.6-34.9 19.2-38 21.1-40.1 1-1.1 1.9-1.8 2.1-1.6zm-0.6 15.9c-0.5-0.2-1.3 0.3-1.7 1-2.5 3.9-22.4 44.3-22.4 45.4 0 1 4.7 1.2 23.3 1.1 22.4-0.2 23.2-0.3 23.2-2.2 0-1.9-0.9-2-19.5-2.5-18.8-0.5-19.5-0.6-19.1-2.5 0.5-3.1 13.1-27.2 15.1-29 1.7-1.5 2-1.3 4.5 4.2 1.5 3.2 3.6 7.6 4.6 9.7 1.1 2.2 1.9 4.3 1.9 4.7 0 0.5-3 0.9-6.6 1.1-5.6 0.3-6.9 0.7-8.2 2.5l-1.4 2.3h11.6c9.4 0 11.6-0.3 11.6-1.4 0-0.8-3.6-8.8-8-17.8-4.4-9-8.4-16.4-8.9-16.6z"/>
		<path id="Layer" fill-rule="evenodd" class="s0" d="m303 193c8.3 0 12.9 1.8 16.9 6.7 2.9 3.5 3.1 4.3 3.1 11.7 0 6.9-0.3 8.3-2.5 11.2-1.4 1.8-3.9 4-5.7 4.9-3.6 1.8-16.7 3.1-18.5 1.8-1.3-0.9-2-31.5-0.8-34.6 0.6-1.4 2-1.7 7.5-1.7zm2.5 8c-2.5 0-2.5 0-2.5 10.5v10.5h2.6c1.4 0 3.9-0.9 5.5-2.1 2.6-1.8 2.9-2.6 2.9-7.2 0-7.1-0.8-9.3-3.6-10.6-1.4-0.6-3.6-1.1-4.9-1.1z"/>
		<path id="Layer" class="s0" d="m328.6 194.6c-0.3 0.9-0.6 9-0.6 18v16.5l3.8-0.3 3.7-0.3 0.3-15.5c0.3-18.8 0.1-20-3.7-20-1.7 0-3.1 0.6-3.5 1.6z"/>
		<path id="Layer" class="s0" d="m348.9 195.3c-5.9 3.9-7.9 8-7.9 15.9 0 8.1 1.5 11.5 6.7 15.5 3.3 2.5 4.4 2.8 11.5 2.7 4.3 0 8.1-0.4 8.5-0.8 1-1 1.7-13 0.9-16.1-0.5-1.9-1.3-2.5-3.4-2.5-4 0-5.2 1.7-5.2 7.2 0 4.6-0.1 4.8-2.8 4.8-4.7 0-7.2-3.6-7.2-10.4 0-5.2 0.3-6.1 3.2-8.8 2.8-2.6 3.7-2.9 7.5-2.3 3.9 0.6 4.3 0.4 4.9-2 1-4-1-5.5-7.6-5.5-4.3 0-6.5 0.6-9.1 2.3z"/>
		<path id="Layer" class="s0" d="m374 195c-0.6 1.2-0.9 8-0.8 17.7l0.3 15.8h4 4l0.3-15.8c0.3-17-0.3-19.7-4.3-19.7-1.4 0-2.9 0.8-3.5 2z"/>
		<path id="Layer" class="s0" d="m386 194.5c-0.7 0.8-1 2.5-0.6 4 0.5 1.9 1.3 2.5 3.4 2.5 4.7 0 5.2 1.3 5.2 15.3v12.8l3.8-0.3 3.7-0.3 0.5-13.5 0.5-13.5 3.2-0.3c4.3-0.4 5.9-2.5 4.5-5.7-1.1-2.4-1.4-2.5-12.1-2.5-8.4 0-11.1 0.3-12.1 1.5z"/>
		<path id="Layer" fill-rule="evenodd" class="s0" d="m426.5 193c3.2 0 3.7 0.4 5.4 4.2 2.6 6.1 7.9 22.8 8.7 27.5 0.5 3.6 0.4 4.1-1.6 4.6-3.1 0.8-4.8-0.1-6.6-3.4-1.2-2.5-2-2.9-5.7-2.9-4.9 0-6.2 0.7-7.1 3.7-0.6 1.8-1.5 2.3-4.2 2.3-2.6 0-3.4-0.4-3.4-1.8 0-1.8 3.7-14.6 5-17.2 0.4-0.9 1.1-3.1 1.5-5 0.4-1.9 1.6-5.4 2.6-7.7 1.7-3.9 2.1-4.3 5.4-4.3zm-1.4 15.6c-1.5 5.5-1.4 6.4 0.9 6.4 1.6 0 2-0.7 2-3.8 0-5.8-1.6-7.3-2.9-2.6z"/>
		<path id="Layer" class="s0" d="m445 195.6c-1.1 2.7-1.4 29.2-0.4 31.8 0.9 2.4 18.9 2.3 19.8 0 1.5-3.9-0.3-5.4-6-5.4h-5.4v-12.6c0-6.9-0.5-13.4-1-14.5-1.6-2.9-5.8-2.5-7 0.7z"/>
		<path id="Layer" class="s0" d="m482.8 194.5c-3.5 2-4.8 4.4-4.8 9.2 0 5 1.3 6.6 7.6 9.7 5.8 2.9 6.8 4.3 4.8 7-1 1.5-2.2 1.8-5.7 1.4-5.1-0.6-7.7 0.5-7.7 3.1 0 2.7 2.1 4 7.2 4.7 8.7 1.2 15.6-3.1 16.4-10.3 0.7-5.4-1.3-8.4-7.6-11.5-7-3.6-7.6-4.3-5.9-6.4 1-1.2 2.3-1.5 5.6-1 5.5 0.7 8.2-1.4 6-4.8-1.2-1.7-2.6-2.1-7.3-2.3-3.8-0.2-6.9 0.3-8.6 1.2z"/>
		<path id="Layer" class="s0" d="m505 195.6c-1.2 3-1.2 15.9-0.1 22.7 0.6 3.4 1.7 5.8 3.8 7.9 2.7 2.7 3.7 3 9.4 3 6 0 6.5-0.2 9.6-3.6l3.4-3.6-0.3-14.3-0.3-14.2-3.1-0.3c-4-0.4-4.4 0.9-4.4 14.8-0.1 11.3-1 14-5 14-4 0-4.9-2.6-5-14.3 0-6-0.5-11.7-1-12.8-1.6-2.9-5.8-2.5-7 0.7z"/>
		<path id="Layer" class="s0" d="m537 195c-0.6 1.2-0.9 8-0.8 17.7l0.3 15.8 4.3 0.3 4.2 0.3v-16.8c0-11.8-0.4-17.3-1.2-18.1-1.9-1.9-5.6-1.4-6.8 0.8z"/>
		<path id="Layer" class="s0" d="m549.5 194.3c-1.3 1-1.6 2.1-1.1 4 0.5 2.1 1.3 2.6 4.4 2.9l3.7 0.3 0.3 13.8 0.3 13.8 4.2-0.3 4.2-0.3 0.5-13.5 0.5-13.5 2.6-0.3c1.5-0.2 3.5-1.2 4.4-2.2 1.6-1.7 1.5-2-0.4-3.9-1.8-1.8-3.3-2.1-11.9-2.1-6.6 0-10.4 0.4-11.7 1.3z"/>
		<path id="Layer" class="s0" d="m578 195.6c-1.2 3.1-1.3 30.4-0.2 32.2 0.6 0.9 3.5 1.2 10.8 1 9.6-0.3 9.9-0.4 10.2-2.7 0.5-3.1-1.2-4.1-7.1-4.1-4.1 0-4.9-0.3-5.9-2.5-1.5-3.3-0.2-4.7 5.4-5.4 4-0.6 4.3-0.8 4.3-3.6 0-2.8-0.3-3-4.2-3.3-7.9-0.6-8.1-6.2-0.1-6.2 7.2 0 10.1-3.3 5.6-6.4-1.6-1.1-4.6-1.6-10-1.6-7.5 0-7.9 0.1-8.8 2.6z"/>
	</g>
</svg>