<svg xmlns="http://www.w3.org/2000/svg" width="3840" height="2160"><path d="M1731,1374L1090,1647L1686,2692Z" fill="rgb(12,106,72)" stroke="rgb(12,106,72)" stroke-width="1.51"/><path d="M1090,1647L856,2537L1686,2692Z" fill="rgb(12,101,72)" stroke="rgb(12,101,72)" stroke-width="1.51"/><path d="M1686,2692L3130,1744L1731,1374Z" fill="rgb(13,133,83)" stroke="rgb(13,133,83)" stroke-width="1.51"/><path d="M911,3551L1855,3330L1686,2692Z" fill="rgb(11,108,75)" stroke="rgb(11,108,75)" stroke-width="1.51"/><path d="M3030,2807L3130,1744L1686,2692Z" fill="rgb(13,151,93)" stroke="rgb(13,151,93)" stroke-width="1.51"/><path d="M1855,3330L3030,2807L1686,2692Z" fill="rgb(13,136,87)" stroke="rgb(13,136,87)" stroke-width="1.51"/><path d="M3020,440L2098,414L1731,1374Z" fill="rgb(9,83,58)" stroke="rgb(9,83,58)" stroke-width="1.51"/><path d="M1731,1374L905,344L1090,1647Z" fill="rgb(8,72,53)" stroke="rgb(8,72,53)" stroke-width="1.51"/><path d="M856,2537L911,3551L1686,2692Z" fill="rgb(13,102,72)" stroke="rgb(13,102,72)" stroke-width="1.51"/><path d="M1090,1647L-111,1485L856,2537Z" fill="rgb(16,104,67)" stroke="rgb(16,104,67)" stroke-width="1.51"/><path d="M856,2537L-194,3390L911,3551Z" fill="rgb(17,108,70)" stroke="rgb(17,108,70)" stroke-width="1.51"/><path d="M-39,613L-111,1485L1090,1647Z" fill="rgb(15,88,55)" stroke="rgb(15,88,55)" stroke-width="1.51"/><path d="M2098,414L905,344L1731,1374Z" fill="rgb(6,57,46)" stroke="rgb(6,57,46)" stroke-width="1.51"/><path d="M-111,1485L-292,2555L856,2537Z" fill="rgb(19,112,70)" stroke="rgb(19,112,70)" stroke-width="1.51"/><path d="M2098,414L1912,-281L905,344Z" fill="rgb(12,68,45)" stroke="rgb(12,68,45)" stroke-width="1.51"/><path d="M3130,1744L3020,440L1731,1374Z" fill="rgb(13,124,74)" stroke="rgb(13,124,74)" stroke-width="1.51"/><path d="M-111,1485L-1025,1451L-292,2555Z" fill="rgb(19,109,64)" stroke="rgb(19,109,64)" stroke-width="1.51"/><path d="M905,344L-39,613L1090,1647Z" fill="rgb(9,61,45)" stroke="rgb(9,61,45)" stroke-width="1.51"/><path d="M-292,2555L-194,3390L856,2537Z" fill="rgb(19,112,70)" stroke="rgb(19,112,70)" stroke-width="1.51"/><path d="M1855,3330L3120,3764L3030,2807Z" fill="rgb(13,151,93)" stroke="rgb(13,151,93)" stroke-width="1.51"/><path d="M3030,2807L3901,2791L3130,1744Z" fill="rgb(13,156,99)" stroke="rgb(13,156,99)" stroke-width="1.51"/><path d="M911,3551L3120,3764L1855,3330Z" fill="rgb(13,127,83)" stroke="rgb(13,127,83)" stroke-width="1.51"/><path d="M905,344L-318,-594L-39,613Z" fill="rgb(16,66,38)" stroke="rgb(16,66,38)" stroke-width="1.51"/><path d="M2923,-325L1912,-281L2098,414Z" fill="rgb(17,95,55)" stroke="rgb(17,95,55)" stroke-width="1.51"/><path d="M3130,1744L3929,681L3020,440Z" fill="rgb(12,113,75)" stroke="rgb(12,113,75)" stroke-width="1.51"/><path d="M3985,3350L3901,2791L3030,2807Z" fill="rgb(13,158,102)" stroke="rgb(13,158,102)" stroke-width="1.51"/><path d="M1912,-281L1141,-369L905,344Z" fill="rgb(12,60,40)" stroke="rgb(12,60,40)" stroke-width="1.51"/><path d="M3901,2791L4098,1600L3130,1744Z" fill="rgb(13,157,101)" stroke="rgb(13,157,101)" stroke-width="1.51"/><path d="M3020,440L2923,-325L2098,414Z" fill="rgb(17,102,60)" stroke="rgb(17,102,60)" stroke-width="1.51"/><path d="M4098,1600L3929,681L3130,1744Z" fill="rgb(13,142,89)" stroke="rgb(13,142,89)" stroke-width="1.51"/><path d="M4117,-305L2923,-325L3020,440Z" fill="rgb(19,110,65)" stroke="rgb(19,110,65)" stroke-width="1.51"/><path d="M1912,-281L1870,-1385L1141,-369Z" fill="rgb(14,71,45)" stroke="rgb(14,71,45)" stroke-width="1.51"/><path d="M3120,3764L3985,3350L3030,2807Z" fill="rgb(13,156,100)" stroke="rgb(13,156,100)" stroke-width="1.51"/><path d="M5145,2671L4736,1410L4098,1600Z" fill="rgb(13,156,99)" stroke="rgb(13,156,99)" stroke-width="1.51"/><path d="M-39,613L-1025,1451L-111,1485Z" fill="rgb(16,88,52)" stroke="rgb(16,88,52)" stroke-width="1.51"/><path d="M-292,2555L-1077,2555L-194,3390Z" fill="rgb(20,113,69)" stroke="rgb(20,113,69)" stroke-width="1.51"/><path d="M-1025,1451L-1077,2555L-292,2555Z" fill="rgb(20,113,69)" stroke="rgb(20,113,69)" stroke-width="1.51"/><path d="M-1077,2555L-927,3607L-194,3390Z" fill="rgb(20,113,69)" stroke="rgb(20,113,69)" stroke-width="1.51"/><path d="M-194,3390L-927,3607L911,3551Z" fill="rgb(20,113,69)" stroke="rgb(20,113,69)" stroke-width="1.51"/><path d="M911,3551L-927,3607L3120,3764Z" fill="rgb(13,103,71)" stroke="rgb(13,103,71)" stroke-width="1.51"/><path d="M4098,1600L4736,1410L3929,681Z" fill="rgb(13,136,87)" stroke="rgb(13,136,87)" stroke-width="1.51"/><path d="M3929,681L4117,-305L3020,440Z" fill="rgb(17,108,69)" stroke="rgb(17,108,69)" stroke-width="1.51"/><path d="M5145,2671L4098,1600L3901,2791Z" fill="rgb(13,160,104)" stroke="rgb(13,160,104)" stroke-width="1.51"/><path d="M-1025,1451L-1253,571L-1077,2555Z" fill="rgb(18,105,60)" stroke="rgb(18,105,60)" stroke-width="1.51"/><path d="M-39,613L-1253,571L-1025,1451Z" fill="rgb(13,68,44)" stroke="rgb(13,68,44)" stroke-width="1.51"/><path d="M-318,-594L-1253,571L-39,613Z" fill="rgb(16,67,38)" stroke="rgb(16,67,38)" stroke-width="1.51"/><path d="M1141,-369L-318,-594L905,344Z" fill="rgb(15,64,39)" stroke="rgb(15,64,39)" stroke-width="1.51"/><path d="M1106,-1490L-318,-594L1141,-369Z" fill="rgb(15,64,39)" stroke="rgb(15,64,39)" stroke-width="1.51"/><path d="M2923,-325L1870,-1385L1912,-281Z" fill="rgb(17,93,54)" stroke="rgb(17,93,54)" stroke-width="1.51"/><path d="M5088,734L4117,-305L3929,681Z" fill="rgb(15,107,71)" stroke="rgb(15,107,71)" stroke-width="1.51"/><path d="M2979,-1581L1870,-1385L2923,-325Z" fill="rgb(18,104,59)" stroke="rgb(18,104,59)" stroke-width="1.51"/><path d="M1870,-1385L1106,-1490L1141,-369Z" fill="rgb(12,61,41)" stroke="rgb(12,61,41)" stroke-width="1.51"/><path d="M3985,3350L5145,2671L3901,2791Z" fill="rgb(13,160,104)" stroke="rgb(13,160,104)" stroke-width="1.51"/><path d="M3985,3350L4852,3779L5145,2671Z" fill="rgb(13,160,104)" stroke="rgb(13,160,104)" stroke-width="1.51"/><path d="M3120,3764L4852,3779L3985,3350Z" fill="rgb(13,160,104)" stroke="rgb(13,160,104)" stroke-width="1.51"/><path d="M5145,2671L5088,734L4736,1410Z" fill="rgb(13,152,95)" stroke="rgb(13,152,95)" stroke-width="1.51"/><path d="M4736,1410L5088,734L3929,681Z" fill="rgb(13,116,78)" stroke="rgb(13,116,78)" stroke-width="1.51"/><path d="M4054,-1267L2979,-1581L2923,-325Z" fill="rgb(19,110,65)" stroke="rgb(19,110,65)" stroke-width="1.51"/><path d="M1870,-1385L2979,-1581L1106,-1490Z" fill="rgb(16,83,50)" stroke="rgb(16,83,50)" stroke-width="1.51"/><path d="M4054,-1267L2923,-325L4117,-305Z" fill="rgb(19,112,68)" stroke="rgb(19,112,68)" stroke-width="1.51"/><path d="M-1149,-1208L-1266,-528L-318,-594Z" fill="rgb(17,70,37)" stroke="rgb(17,70,37)" stroke-width="1.51"/><path d="M-318,-594L-1266,-528L-1253,571Z" fill="rgb(17,70,37)" stroke="rgb(17,70,37)" stroke-width="1.51"/><path d="M1106,-1490L-314,-1406L-318,-594Z" fill="rgb(17,68,38)" stroke="rgb(17,68,38)" stroke-width="1.51"/><path d="M5027,-339L4054,-1267L4117,-305Z" fill="rgb(20,113,69)" stroke="rgb(20,113,69)" stroke-width="1.51"/><path d="M5088,734L5027,-339L4117,-305Z" fill="rgb(20,113,69)" stroke="rgb(20,113,69)" stroke-width="1.51"/><path d="M-314,-1406L-1149,-1208L-318,-594Z" fill="rgb(17,70,37)" stroke="rgb(17,70,37)" stroke-width="1.51"/><path d="M5027,-339L5163,-1634L4054,-1267Z" fill="rgb(20,113,69)" stroke="rgb(20,113,69)" stroke-width="1.51"/><path d="M4054,-1267L5163,-1634L2979,-1581Z" fill="rgb(20,113,69)" stroke="rgb(20,113,69)" stroke-width="1.51"/><path d="M5088,734L5163,-1634L5027,-339Z" fill="rgb(20,113,69)" stroke="rgb(20,113,69)" stroke-width="1.51"/><path d="M5145,2671L5163,-1634L5088,734Z" fill="rgb(13,103,71)" stroke="rgb(13,103,71)" stroke-width="1.51"/></svg>