<svg xmlns="http://www.w3.org/2000/svg" width="3840" height="2160"><path d="M1331,1108L2486,395L1396,843Z" fill="rgb(33,102,127)" stroke="rgb(33,102,127)" stroke-width="1.51"/><path d="M1331,1108L2005,2036L2486,395Z" fill="rgb(51,109,132)" stroke="rgb(51,109,132)" stroke-width="1.51"/><path d="M2486,395L1546,251L1396,843Z" fill="rgb(32,97,120)" stroke="rgb(32,97,120)" stroke-width="1.51"/><path d="M2005,2036L3385,1247L2486,395Z" fill="rgb(61,114,134)" stroke="rgb(61,114,134)" stroke-width="1.51"/><path d="M3385,1247L3179,-169L2486,395Z" fill="rgb(39,97,117)" stroke="rgb(39,97,117)" stroke-width="1.51"/><path d="M2005,2036L3694,1494L3385,1247Z" fill="rgb(58,108,126)" stroke="rgb(58,108,126)" stroke-width="1.51"/><path d="M1331,1108L1038,2256L2005,2036Z" fill="rgb(41,100,122)" stroke="rgb(41,100,122)" stroke-width="1.51"/><path d="M268,1667L1038,2256L1331,1108Z" fill="rgb(40,97,118)" stroke="rgb(40,97,118)" stroke-width="1.51"/><path d="M2486,395L1700,-497L1546,251Z" fill="rgb(32,89,109)" stroke="rgb(32,89,109)" stroke-width="1.51"/><path d="M4028,983L3179,-169L3385,1247Z" fill="rgb(32,93,115)" stroke="rgb(32,93,115)" stroke-width="1.51"/><path d="M256,-108L1331,1108L1396,843Z" fill="rgb(19,91,116)" stroke="rgb(19,91,116)" stroke-width="1.51"/><path d="M256,-108L268,1667L1331,1108Z" fill="rgb(26,92,115)" stroke="rgb(26,92,115)" stroke-width="1.51"/><path d="M3179,-169L1700,-497L2486,395Z" fill="rgb(41,92,110)" stroke="rgb(41,92,110)" stroke-width="1.51"/><path d="M2005,2036L3289,3014L3694,1494Z" fill="rgb(45,94,111)" stroke="rgb(45,94,111)" stroke-width="1.51"/><path d="M1038,2256L1744,2922L2005,2036Z" fill="rgb(34,92,113)" stroke="rgb(34,92,113)" stroke-width="1.51"/><path d="M3694,1494L4028,983L3385,1247Z" fill="rgb(46,100,118)" stroke="rgb(46,100,118)" stroke-width="1.51"/><path d="M835,3956L1836,3202L1744,2922Z" fill="rgb(32,91,112)" stroke="rgb(32,91,112)" stroke-width="1.51"/><path d="M256,-108L1396,843L1546,251Z" fill="rgb(19,86,109)" stroke="rgb(19,86,109)" stroke-width="1.51"/><path d="M2641,3294L3289,3014L2005,2036Z" fill="rgb(49,100,116)" stroke="rgb(49,100,116)" stroke-width="1.51"/><path d="M835,3956L1744,2922L1038,2256Z" fill="rgb(28,89,110)" stroke="rgb(28,89,110)" stroke-width="1.51"/><path d="M2641,3294L2005,2036L1744,2922Z" fill="rgb(43,97,116)" stroke="rgb(43,97,116)" stroke-width="1.51"/><path d="M3694,1494L4653,936L4028,983Z" fill="rgb(42,96,115)" stroke="rgb(42,96,115)" stroke-width="1.51"/><path d="M1700,-497L810,-519L1546,251Z" fill="rgb(20,83,105)" stroke="rgb(20,83,105)" stroke-width="1.51"/><path d="M1836,3202L2641,3294L1744,2922Z" fill="rgb(42,97,115)" stroke="rgb(42,97,115)" stroke-width="1.51"/><path d="M810,-519L256,-108L1546,251Z" fill="rgb(18,78,98)" stroke="rgb(18,78,98)" stroke-width="1.51"/><path d="M3289,3014L4037,2653L3694,1494Z" fill="rgb(36,85,101)" stroke="rgb(36,85,101)" stroke-width="1.51"/><path d="M1700,-497L1367,-1677L810,-519Z" fill="rgb(19,82,104)" stroke="rgb(19,82,104)" stroke-width="1.51"/><path d="M3179,-169L2083,-1319L1700,-497Z" fill="rgb(39,91,109)" stroke="rgb(39,91,109)" stroke-width="1.51"/><path d="M4037,2653L4653,936L3694,1494Z" fill="rgb(44,94,111)" stroke="rgb(44,94,111)" stroke-width="1.51"/><path d="M4028,983L4365,-429L3179,-169Z" fill="rgb(26,78,95)" stroke="rgb(26,78,95)" stroke-width="1.51"/><path d="M3179,-169L2440,-1701L2083,-1319Z" fill="rgb(43,93,110)" stroke="rgb(43,93,110)" stroke-width="1.51"/><path d="M4714,-264L4365,-429L4028,983Z" fill="rgb(26,77,94)" stroke="rgb(26,77,94)" stroke-width="1.51"/><path d="M268,1667L-369,2152L1038,2256Z" fill="rgb(30,82,100)" stroke="rgb(30,82,100)" stroke-width="1.51"/><path d="M-856,1882L-369,2152L268,1667Z" fill="rgb(32,82,98)" stroke="rgb(32,82,98)" stroke-width="1.51"/><path d="M835,3956L3518,3575L2641,3294Z" fill="rgb(46,99,117)" stroke="rgb(46,99,117)" stroke-width="1.51"/><path d="M2641,3294L3518,3575L3289,3014Z" fill="rgb(42,92,109)" stroke="rgb(42,92,109)" stroke-width="1.51"/><path d="M3289,3014L3518,3575L4037,2653Z" fill="rgb(36,86,102)" stroke="rgb(36,86,102)" stroke-width="1.51"/><path d="M256,-108L-512,185L268,1667Z" fill="rgb(18,79,100)" stroke="rgb(18,79,100)" stroke-width="1.51"/><path d="M-81,-955L-512,185L256,-108Z" fill="rgb(17,68,85)" stroke="rgb(17,68,85)" stroke-width="1.51"/><path d="M-81,-955L256,-108L810,-519Z" fill="rgb(18,71,90)" stroke="rgb(18,71,90)" stroke-width="1.51"/><path d="M4533,3628L4504,2858L4037,2653Z" fill="rgb(33,83,99)" stroke="rgb(33,83,99)" stroke-width="1.51"/><path d="M4037,2653L5289,1194L4653,936Z" fill="rgb(47,97,114)" stroke="rgb(47,97,114)" stroke-width="1.51"/><path d="M2083,-1319L1367,-1677L1700,-497Z" fill="rgb(28,86,106)" stroke="rgb(28,86,106)" stroke-width="1.51"/><path d="M4059,-1675L2440,-1701L3179,-169Z" fill="rgb(34,84,101)" stroke="rgb(34,84,101)" stroke-width="1.51"/><path d="M4365,-429L4059,-1675L3179,-169Z" fill="rgb(25,75,92)" stroke="rgb(25,75,92)" stroke-width="1.51"/><path d="M4653,936L4714,-264L4028,983Z" fill="rgb(27,86,107)" stroke="rgb(27,86,107)" stroke-width="1.51"/><path d="M2440,-1701L1367,-1677L2083,-1319Z" fill="rgb(33,88,108)" stroke="rgb(33,88,108)" stroke-width="1.51"/><path d="M1836,3202L835,3956L2641,3294Z" fill="rgb(37,94,114)" stroke="rgb(37,94,114)" stroke-width="1.51"/><path d="M-320,3630L835,3956L1038,2256Z" fill="rgb(26,81,100)" stroke="rgb(26,81,100)" stroke-width="1.51"/><path d="M1367,-1677L-81,-955L810,-519Z" fill="rgb(18,76,95)" stroke="rgb(18,76,95)" stroke-width="1.51"/><path d="M-369,2152L-320,3630L1038,2256Z" fill="rgb(25,77,93)" stroke="rgb(25,77,93)" stroke-width="1.51"/><path d="M-512,185L-856,1882L268,1667Z" fill="rgb(38,90,109)" stroke="rgb(38,90,109)" stroke-width="1.51"/><path d="M4653,936L5289,1194L4714,-264Z" fill="rgb(28,88,109)" stroke="rgb(28,88,109)" stroke-width="1.51"/><path d="M4504,2858L5289,1194L4037,2653Z" fill="rgb(33,83,99)" stroke="rgb(33,83,99)" stroke-width="1.51"/><path d="M4504,2858L4533,3628L5289,1194Z" fill="rgb(33,83,99)" stroke="rgb(33,83,99)" stroke-width="1.51"/><path d="M3518,3575L4533,3628L4037,2653Z" fill="rgb(33,83,99)" stroke="rgb(33,83,99)" stroke-width="1.51"/><path d="M835,3956L4533,3628L3518,3575Z" fill="rgb(45,95,112)" stroke="rgb(45,95,112)" stroke-width="1.51"/><path d="M4984,-1135L4059,-1675L4365,-429Z" fill="rgb(25,75,92)" stroke="rgb(25,75,92)" stroke-width="1.51"/><path d="M-975,3073L-320,3630L-369,2152Z" fill="rgb(25,75,92)" stroke="rgb(25,75,92)" stroke-width="1.51"/><path d="M4714,-264L4984,-1135L4365,-429Z" fill="rgb(25,75,92)" stroke="rgb(25,75,92)" stroke-width="1.51"/><path d="M5289,1194L4984,-1135L4714,-264Z" fill="rgb(25,75,92)" stroke="rgb(25,75,92)" stroke-width="1.51"/><path d="M-856,1882L-975,3073L-369,2152Z" fill="rgb(25,75,92)" stroke="rgb(25,75,92)" stroke-width="1.51"/><path d="M-512,185L-1430,229L-856,1882Z" fill="rgb(21,83,105)" stroke="rgb(21,83,105)" stroke-width="1.51"/><path d="M-856,1882L-1430,229L-975,3073Z" fill="rgb(36,86,103)" stroke="rgb(36,86,103)" stroke-width="1.51"/><path d="M-1400,-183L-1430,229L-512,185Z" fill="rgb(17,69,87)" stroke="rgb(17,69,87)" stroke-width="1.51"/><path d="M-81,-955L-1400,-183L-512,185Z" fill="rgb(17,68,85)" stroke="rgb(17,68,85)" stroke-width="1.51"/><path d="M-1430,229L-1066,3661L-975,3073Z" fill="rgb(25,75,92)" stroke="rgb(25,75,92)" stroke-width="1.51"/><path d="M-975,3073L-1066,3661L-320,3630Z" fill="rgb(25,75,92)" stroke="rgb(25,75,92)" stroke-width="1.51"/><path d="M-320,3630L-1066,3661L835,3956Z" fill="rgb(25,75,92)" stroke="rgb(25,75,92)" stroke-width="1.51"/><path d="M1367,-1677L-1150,-1597L-81,-955Z" fill="rgb(17,68,85)" stroke="rgb(17,68,85)" stroke-width="1.51"/><path d="M-81,-955L-1150,-1597L-1400,-183Z" fill="rgb(17,68,85)" stroke="rgb(17,68,85)" stroke-width="1.51"/></svg>